<?xml version="1.0" encoding="UTF-8" standalone="no"?>
<!-- Created with Inkscape (http://www.inkscape.org/) -->

<svg
   xmlns:dc="http://purl.org/dc/elements/1.1/"
   xmlns:cc="http://creativecommons.org/ns#"
   xmlns:rdf="http://www.w3.org/1999/02/22-rdf-syntax-ns#"
   xmlns:svg="http://www.w3.org/2000/svg"
   xmlns="http://www.w3.org/2000/svg"
   version="1.1"
   width="48"
   height="48"
   id="svg2">
  <defs
     id="defs4" />
  <metadata
     id="metadata7">
    <rdf:RDF>
      <cc:Work
         rdf:about="">
        <dc:format>image/svg+xml</dc:format>
        <dc:type
           rdf:resource="http://purl.org/dc/dcmitype/StillImage" />
        <dc:title></dc:title>
      </cc:Work>
    </rdf:RDF>
  </metadata>
  <g
     transform="matrix(0.91666667,0,0,0.91666667,2,-918.66538)"
     id="layer1">
    <path
       d="m 50.753681,25.240644 a 23.844654,23.844654 0 1 1 -47.689308,0 23.844654,23.844654 0 1 1 47.689308,0 z"
       transform="matrix(0.94730825,0,0,-0.94730825,-1.4911434,1052.2729)"
       id="path2990"
       style="fill:#fddde6;stroke:#ffaacc;stroke-width:2.98057675" />
    <path
       d="m 28.577499,1020.7975 c 0,0 13.084987,4.2119 10.134978,15.4053 -1.519409,5.7652 -6.527879,5.7886 -8.800945,3.4602 -1.887698,-1.9334 -1.888513,-5.2967 0.626418,-6.9483 7.311309,-4.8014 -1.960451,-11.9172 -1.960451,-11.9172 z"
       id="path2994-3"
       style="color:#000000;fill:#ffaacc;fill-opacity:1;fill-rule:nonzero;stroke:none;stroke-width:1;marker:none;visibility:visible;display:inline;overflow:visible;enable-background:accumulate" />
    <path
       d="m 19.422506,1020.7975 c 0,0 -13.0849882,4.2119 -10.1349789,15.4053 1.5194099,5.7652 6.5278789,5.7886 8.8009449,3.4602 1.887698,-1.9334 1.888513,-5.2967 -0.626418,-6.9483 -7.311308,-4.8014 1.960452,-11.9172 1.960452,-11.9172 z"
       id="path2994-3-3"
       style="color:#000000;fill:#ffaacc;fill-opacity:1;fill-rule:nonzero;stroke:none;stroke-width:1;marker:none;visibility:visible;display:inline;overflow:visible;enable-background:accumulate" />
  </g>
</svg>
